<svg width="189" height="27" viewBox="0 0 189 27" fill="none" xmlns="http://www.w3.org/2000/svg">
<path d="M12.0996 15.7773C12.0996 15.0026 11.8262 14.4102 11.2793 14C10.7324 13.5807 9.74805 13.1432 8.32617 12.6875C6.9043 12.2227 5.77865 11.7669 4.94922 11.3203C2.6888 10.099 1.55859 8.45378 1.55859 6.38477C1.55859 5.30924 1.85938 4.35221 2.46094 3.51367C3.07161 2.66602 3.94206 2.00521 5.07227 1.53125C6.21159 1.05729 7.48763 0.820312 8.90039 0.820312C10.3223 0.820312 11.5892 1.08008 12.7012 1.59961C13.8132 2.11003 14.6745 2.83464 15.2852 3.77344C15.9049 4.71224 16.2148 5.77865 16.2148 6.97266H12.1133C12.1133 6.0612 11.8262 5.35482 11.252 4.85352C10.6777 4.3431 9.87109 4.08789 8.83203 4.08789C7.82943 4.08789 7.05013 4.30208 6.49414 4.73047C5.93815 5.14974 5.66016 5.70573 5.66016 6.39844C5.66016 7.04557 5.98372 7.58789 6.63086 8.02539C7.28711 8.46289 8.2487 8.87305 9.51562 9.25586C11.849 9.95768 13.5488 10.8281 14.6152 11.8672C15.6816 12.9062 16.2148 14.2005 16.2148 15.75C16.2148 17.4727 15.5632 18.8262 14.2598 19.8105C12.9564 20.7858 11.2018 21.2734 8.99609 21.2734C7.46484 21.2734 6.07031 20.9954 4.8125 20.4395C3.55469 19.8743 2.5931 19.1042 1.92773 18.1289C1.27148 17.1536 0.943359 16.0234 0.943359 14.7383H5.05859C5.05859 16.9349 6.37109 18.0332 8.99609 18.0332C9.97135 18.0332 10.7324 17.8372 11.2793 17.4453C11.8262 17.0443 12.0996 16.4883 12.0996 15.7773ZM24.2676 15.4082L27.002 6.20703H31.2402L25.293 23.2969L24.9648 24.0762C24.0807 26.0085 22.6224 26.9746 20.5898 26.9746C20.0156 26.9746 19.4323 26.888 18.8398 26.7148V23.7207L19.4414 23.7344C20.1888 23.7344 20.7448 23.6204 21.1094 23.3926C21.4831 23.1647 21.7747 22.7865 21.9844 22.2578L22.4492 21.041L17.2676 6.20703H21.5195L24.2676 15.4082ZM40.8105 16.9121C40.8105 16.429 40.569 16.0508 40.0859 15.7773C39.612 15.4948 38.8464 15.2441 37.7891 15.0254C34.2708 14.2871 32.5117 12.7923 32.5117 10.541C32.5117 9.22852 33.054 8.13477 34.1387 7.25977C35.2324 6.37565 36.6589 5.93359 38.418 5.93359C40.2956 5.93359 41.7949 6.37565 42.916 7.25977C44.0462 8.14388 44.6113 9.29232 44.6113 10.7051H40.6602C40.6602 10.14 40.4779 9.67513 40.1133 9.31055C39.7487 8.93685 39.179 8.75 38.4043 8.75C37.7389 8.75 37.224 8.90039 36.8594 9.20117C36.4948 9.50195 36.3125 9.88477 36.3125 10.3496C36.3125 10.7871 36.5176 11.1426 36.9277 11.416C37.347 11.6803 38.0488 11.9128 39.0332 12.1133C40.0176 12.3047 40.847 12.5234 41.5215 12.7695C43.6087 13.5352 44.6523 14.8613 44.6523 16.748C44.6523 18.097 44.0736 19.1908 42.916 20.0293C41.7585 20.8587 40.2637 21.2734 38.4316 21.2734C37.1921 21.2734 36.0892 21.0547 35.123 20.6172C34.166 20.1706 33.4141 19.5645 32.8672 18.7988C32.3203 18.0241 32.0469 17.1901 32.0469 16.2969H35.793C35.8294 16.9987 36.0892 17.5365 36.5723 17.9102C37.0553 18.2839 37.7025 18.4707 38.5137 18.4707C39.2702 18.4707 39.8398 18.3294 40.2227 18.0469C40.6146 17.7552 40.8105 17.377 40.8105 16.9121ZM60.5391 13.7402C60.5391 16.11 60.0332 17.9603 59.0215 19.291C58.0098 20.6126 56.597 21.2734 54.7832 21.2734C53.179 21.2734 51.8984 20.6582 50.9414 19.4277L50.7637 21H47.209V0H51.1602V7.5332C52.0716 6.4668 53.2702 5.93359 54.7559 5.93359C56.5605 5.93359 57.9733 6.59896 58.9941 7.92969C60.0241 9.2513 60.5391 11.1152 60.5391 13.5215V13.7402ZM56.5879 13.4531C56.5879 11.9583 56.3509 10.8691 55.877 10.1855C55.403 9.49284 54.6966 9.14648 53.7578 9.14648C52.5 9.14648 51.6341 9.66146 51.1602 10.6914V16.5293C51.6432 17.5684 52.5182 18.0879 53.7852 18.0879C55.0612 18.0879 55.8997 17.459 56.3008 16.2012C56.4922 15.5996 56.5879 14.6836 56.5879 13.4531ZM67.1562 21H63.1914V6.20703H67.1562V21ZM62.959 2.37891C62.959 1.78646 63.1549 1.29883 63.5469 0.916016C63.9479 0.533203 64.4902 0.341797 65.1738 0.341797C65.8483 0.341797 66.3861 0.533203 66.7871 0.916016C67.1882 1.29883 67.3887 1.78646 67.3887 2.37891C67.3887 2.98047 67.1836 3.47266 66.7734 3.85547C66.3724 4.23828 65.8392 4.42969 65.1738 4.42969C64.5085 4.42969 63.9707 4.23828 63.5605 3.85547C63.1595 3.47266 62.959 2.98047 62.959 2.37891ZM69.8086 13.4668C69.8086 11.9993 70.0911 10.6914 70.6562 9.54297C71.2214 8.39453 72.0326 7.50586 73.0898 6.87695C74.1562 6.24805 75.3913 5.93359 76.7949 5.93359C78.791 5.93359 80.418 6.54427 81.6758 7.76562C82.9427 8.98698 83.6491 10.6458 83.7949 12.7422L83.8223 13.7539C83.8223 16.0234 83.1888 17.8464 81.9219 19.2227C80.6549 20.5898 78.9551 21.2734 76.8223 21.2734C74.6895 21.2734 72.985 20.5898 71.709 19.2227C70.4421 17.8555 69.8086 15.9961 69.8086 13.6445V13.4668ZM73.7598 13.7539C73.7598 15.1576 74.0241 16.2331 74.5527 16.9805C75.0814 17.7188 75.8379 18.0879 76.8223 18.0879C77.7793 18.0879 78.5267 17.7233 79.0645 16.9941C79.6022 16.2559 79.8711 15.0801 79.8711 13.4668C79.8711 12.0905 79.6022 11.0241 79.0645 10.2676C78.5267 9.51107 77.7702 9.13281 76.7949 9.13281C75.8288 9.13281 75.0814 9.51107 74.5527 10.2676C74.0241 11.015 73.7598 12.1771 73.7598 13.7539ZM90.4258 21H86.4609V0H90.4258V21Z" fill="black"/>
<path d="M98.0547 13.9863V21H93.9531V1.09375H101.719C103.214 1.09375 104.526 1.36719 105.656 1.91406C106.796 2.46094 107.671 3.24023 108.281 4.25195C108.892 5.25456 109.197 6.39844 109.197 7.68359C109.197 9.63411 108.527 11.1745 107.188 12.3047C105.857 13.4258 104.011 13.9863 101.65 13.9863H98.0547ZM98.0547 10.6641H101.719C102.803 10.6641 103.628 10.4089 104.193 9.89844C104.768 9.38802 105.055 8.65885 105.055 7.71094C105.055 6.73568 104.768 5.94727 104.193 5.3457C103.619 4.74414 102.826 4.43424 101.814 4.41602H98.0547V10.6641ZM127.777 18.4844C127.039 19.3685 125.995 20.0566 124.646 20.5488C123.298 21.0319 121.803 21.2734 120.162 21.2734C118.439 21.2734 116.926 20.8997 115.623 20.1523C114.329 19.3958 113.326 18.3021 112.615 16.8711C111.913 15.4401 111.553 13.7585 111.535 11.8262V10.4727C111.535 8.48568 111.868 6.76758 112.533 5.31836C113.208 3.86003 114.174 2.74805 115.432 1.98242C116.699 1.20768 118.18 0.820312 119.875 0.820312C122.236 0.820312 124.081 1.38542 125.412 2.51562C126.743 3.63672 127.531 5.27279 127.777 7.42383H123.785C123.603 6.28451 123.197 5.45052 122.568 4.92188C121.949 4.39323 121.092 4.12891 119.998 4.12891C118.604 4.12891 117.542 4.65299 116.812 5.70117C116.083 6.74935 115.714 8.30794 115.705 10.377V11.6484C115.705 13.7357 116.102 15.3125 116.895 16.3789C117.688 17.4453 118.85 17.9785 120.381 17.9785C121.921 17.9785 123.02 17.6504 123.676 16.9941V13.5625H119.943V10.541H127.777V18.4844ZM146.617 15.2578L149.297 1.09375H153.385L148.969 21H144.84L141.6 7.68359L138.359 21H134.23L129.814 1.09375H133.902L136.596 15.2305L139.877 1.09375H143.35L146.617 15.2578ZM166.25 16.8984H159.059L157.691 21H153.33L160.74 1.09375H164.541L171.992 21H167.631L166.25 16.8984ZM160.166 13.5762H165.143L162.641 6.125L160.166 13.5762ZM184.174 15.7773C184.174 15.0026 183.9 14.4102 183.354 14C182.807 13.5807 181.822 13.1432 180.4 12.6875C178.979 12.2227 177.853 11.7669 177.023 11.3203C174.763 10.099 173.633 8.45378 173.633 6.38477C173.633 5.30924 173.934 4.35221 174.535 3.51367C175.146 2.66602 176.016 2.00521 177.146 1.53125C178.286 1.05729 179.562 0.820312 180.975 0.820312C182.396 0.820312 183.663 1.08008 184.775 1.59961C185.887 2.11003 186.749 2.83464 187.359 3.77344C187.979 4.71224 188.289 5.77865 188.289 6.97266H184.188C184.188 6.0612 183.9 5.35482 183.326 4.85352C182.752 4.3431 181.945 4.08789 180.906 4.08789C179.904 4.08789 179.124 4.30208 178.568 4.73047C178.012 5.14974 177.734 5.70573 177.734 6.39844C177.734 7.04557 178.058 7.58789 178.705 8.02539C179.361 8.46289 180.323 8.87305 181.59 9.25586C183.923 9.95768 185.623 10.8281 186.689 11.8672C187.756 12.9062 188.289 14.2005 188.289 15.75C188.289 17.4727 187.637 18.8262 186.334 19.8105C185.031 20.7858 183.276 21.2734 181.07 21.2734C179.539 21.2734 178.145 20.9954 176.887 20.4395C175.629 19.8743 174.667 19.1042 174.002 18.1289C173.346 17.1536 173.018 16.0234 173.018 14.7383H177.133C177.133 16.9349 178.445 18.0332 181.07 18.0332C182.046 18.0332 182.807 17.8372 183.354 17.4453C183.9 17.0443 184.174 16.4883 184.174 15.7773Z" fill="white"/>
</svg>
